<?xml version="1.0" encoding="UTF-8" standalone="no"?>
<svg
   fill="#000000"
   version="1.1"
   id="Capa_1"
   width="800px"
   height="800px"
   viewBox="-20 -20 20 20"
   xml:space="preserve"
   sodipodi:docname="home.svg"
   inkscape:version="1.4.2 (f4327f4, 2025-05-13)"
   xmlns:inkscape="http://www.inkscape.org/namespaces/inkscape"
   xmlns:sodipodi="http://sodipodi.sourceforge.net/DTD/sodipodi-0.dtd"
   xmlns="http://www.w3.org/2000/svg"
   xmlns:svg="http://www.w3.org/2000/svg"><defs
   id="defs4" /><sodipodi:namedview
   id="namedview4"
   pagecolor="#ffffff"
   bordercolor="#666666"
   borderopacity="1.0"
   inkscape:showpageshadow="2"
   inkscape:pageopacity="0.0"
   inkscape:pagecheckerboard="0"
   inkscape:deskcolor="#d1d1d1"
   inkscape:zoom="0.34913397"
   inkscape:cx="-624.40215"
   inkscape:cy="37.23499"
   inkscape:window-width="1920"
   inkscape:window-height="992"
   inkscape:window-x="-8"
   inkscape:window-y="-8"
   inkscape:window-maximized="1"
   inkscape:current-layer="g2" />
<g
   id="g4"
   transform="matrix(0.05949343,0,0,0.05949343,4.7025328e-4,-0.067988)">
	<g
   id="g3">
		<g
   id="g2"
   transform="matrix(0.66796954,0,0,0.66796954,-333.71599,-344.97884)">
			<path
   fill="#ffffff"
   d="m 487.083,225.514 -75.08,-75.08 C 389.00175,123.22391 365.37175,99.51445 355.213,93.645 L 299.31,37.74 C 271.671,10.116 223.616,10.165 196.04,37.79 L 8.312,225.514 c -11.082,11.104 -11.082,29.071 0,40.158 11.087,11.101 29.089,11.101 40.172,0 L 236.194,77.943 c 6.115,-6.083 16.893,-6.083 22.976,-0.018 l 187.742,187.747 c 5.567,5.551 12.825,8.312 20.081,8.312 7.271,0 14.541,-2.764 20.091,-8.312 11.086,-11.086 11.086,-29.053 -10e-4,-40.158 z"
   id="path1"
   style="fill:#cccccc"
   sodipodi:nodetypes="cccccccccccscc" />
            <path
   fill="#aaaaaa"
   d="m 257.561,75.978187 c -5.454,-5.451 -14.285,-5.451 -19.723,0 L 72.712,241.05519 c -2.607,2.606 -4.085,6.164 -4.085,9.877 v 120.401 c 0,28.253 22.908,51.16 51.16,51.16 h 81.754 v -126.61 h 92.299 v 126.61 h 81.755 c 28.251,0 51.159,-22.907 51.159,-51.159 v -120.402 c 0,-3.713 -1.465,-7.271 -4.085,-9.877 z"
   id="path2"
   style="fill:#b3b3b3" />
		<rect
   style="fill:#666666;stroke-width:10.4087"
   id="rect4"
   width="49.377491"
   height="114.59305"
   x="351.22443"
   y="29.092306" /></g>
	</g>
</g>
 </svg>
